PathFileType	4	(X/Y/Z)	 s10c0102.trc
DataRate	CameraRate	NumFrames	NumMarkers	Units	OrigDataRate	OrigDataStartFrame	OrigNumFrames
200	200	4	50	mm	200	1251	2000
Frame#	Time	racr			lacr			c7			jug			rlel			rdr			llel			ldr			s2			lic			ric			lasi			rasi			rpsi			lpsi			rgt			lgt			rth1			rth2			rth3			rth4			rlfc			rmfc			rsh1			rsh2			rsh3			rsh4			rlmal			rmmal			rcal			rtoe			rmt5			lth1			lth2			lth4			lth3			llfc			lmfc			llmal			lmmal			lcal			lmt5			lsh1			lsh2			lsh3			lsh4			ltoe			SBIKE			LBIKE			RBIKE			
		X1	Y1	Z1	X2	Y2	Z2	X3	Y3	Z3	X4	Y4	Z4	X5	Y5	Z5	X6	Y6	Z6	X7	Y7	Z7	X8	Y8	Z8	X9	Y9	Z9	X10	Y10	Z10	X11	Y11	Z11	X12	Y12	Z12	X13	Y13	Z13	X14	Y14	Z14	X15	Y15	Z15	X16	Y16	Z16	X17	Y17	Z17	X18	Y18	Z18	X19	Y19	Z19	X20	Y20	Z20	X21	Y21	Z21	X22	Y22	Z22	X23	Y23	Z23	X24	Y24	Z24	X25	Y25	Z25	X26	Y26	Z26	X27	Y27	Z27	X28	Y28	Z28	X29	Y29	Z29	X30	Y30	Z30	X31	Y31	Z31	X32	Y32	Z32	X33	Y33	Z33	X34	Y34	Z34	X35	Y35	Z35	X36	Y36	Z36	X37	Y37	Z37	X38	Y38	Z38	X39	Y39	Z39	X40	Y40	Z40	X41	Y41	Z41	X42	Y42	Z42	X43	Y43	Z43	X44	Y44	Z44	X45	Y45	Z45	X46	Y46	Z46	X47	Y47	Z47	X48	Y48	Z48	X49	Y49	Z49	X50	Y50	Z50	
1251	6.2550	407.808290	1267.528075	8.511615	468.134109	1273.087774	-293.910676	403.065229	1311.125548	-156.820290	400.662596	1167.992157	-163.485337	464.862149	1013.309717	74.297815	637.057197	879.550985	-4.875367	517.895321	1040.721954	-443.445448	661.347731	885.836853	-372.394402	-98.205255	1094.269372	-239.022685	81.488308	1106.775192	-376.107648	54.398679	1136.704223	-81.238515	106.223705	1025.159687	-335.242998	64.202171	1057.589391	-91.458910	-70.945931	1156.300396	-185.337372	-48.040841	1155.028638	-297.052421	-35.557638	1042.256523	-27.517601	-16.406428	965.081022	-413.561663	94.540176	984.050234	-6.108891	180.217462	997.391065	-24.507746	259.746417	968.306545	-21.879514	181.006460	1032.370250	-38.439556	372.628132	964.788466	-44.306048	370.073629	946.184438	-172.390231	311.880215	869.425929	-19.014136	295.534908	783.281800	-31.059820	239.992772	717.754527	-35.861280	326.330625	771.768394	-50.555589	190.215976	612.991784	-49.525827	224.931374	619.484675	-126.415963	140.147367	619.740145	-100.225055	324.438465	460.710113	-84.719841	240.165246	489.957377	-29.169641	44.592419	856.922973	-428.079729	102.104233	792.805809	-415.306670	133.306633	809.963242	-403.815337	118.631407	705.650785	-406.250207	161.567780	607.422915	-384.524336	163.869968	600.789675	-266.923320	12.407005	259.808432	-377.510925	33.777231	258.334151	-300.049672	-40.890007	233.414299	-332.503455	120.383371	155.337038	-394.187488	85.827957	510.246768	-411.650273	86.804866	424.096791	-400.474459	41.157225	347.331957	-391.912191	117.932004	418.439055	-379.243417	205.387932	172.943406	-336.308398	-204.942312	833.723031	-224.581704	-78.321464	81.753056	-423.694955	-102.740315	80.563483	-24.411414	
1252	6.2600	406.681409	1267.470931	9.812087	468.778296	1272.280224	-292.187654	403.279429	1310.717995	-155.703472	400.117618	1167.575392	-162.022871	464.088242	1012.979061	75.136876	636.814186	879.689619	-4.796174	518.104773	1040.942108	-443.324497	661.446356	885.842110	-372.480408	-98.885460	1095.858458	-238.688471	81.150291	1107.726205	-376.187909	53.584751	1138.293237	-82.200767	105.257771	1026.029627	-335.864851	63.394963	1058.972884	-91.718034	-71.188454	1158.312169	-185.392701	-48.614646	1156.563231	-296.870257	-35.336613	1044.090785	-26.911880	-18.350811	966.214267	-413.898145	93.847391	985.242126	-6.675073	179.750502	997.495139	-25.460652	258.834320	967.455998	-22.846516	180.883769	1032.259194	-39.720524	371.611828	961.478022	-45.423550	367.131195	942.788784	-173.213235	310.130774	866.631592	-21.211183	295.734033	779.548809	-31.246959	241.595046	712.962250	-35.634556	326.981027	768.403868	-50.225263	193.592723	607.170693	-48.944613	227.955094	614.589338	-125.559543	143.012251	611.566431	-99.329514	334.037540	461.088258	-84.212021	248.500863	486.647641	-28.371615	43.751102	857.523413	-428.491228	102.258613	794.290485	-415.607140	133.297739	811.976797	-404.661713	120.221609	707.493578	-406.248788	163.695548	609.891271	-384.970378	167.965676	602.536863	-267.358116	5.731431	266.591075	-377.612370	26.920422	264.385342	-300.006422	-48.338398	241.408924	-332.536182	111.018788	159.586057	-394.559662	85.805596	514.652116	-411.845093	84.590080	428.594571	-400.487453	37.075729	352.958509	-391.802344	115.576036	422.157215	-379.285718	196.442686	174.756331	-336.720171	-205.120181	833.755088	-224.335649	-78.308106	81.775317	-423.677861	-102.756934	80.583475	-24.413004	
1253	6.2650	405.692593	1267.399265	10.794914	469.356380	1271.469897	-290.458935	403.403278	1310.316518	-154.428986	399.577003	1167.172141	-160.524846	463.469490	1012.804295	75.789851	636.522016	879.966698	-4.809732	518.316231	1041.162584	-443.219478	661.527836	885.823719	-372.545440	-99.623856	1097.341174	-238.314325	80.776736	1108.594566	-376.333599	52.489781	1139.967469	-82.820215	104.527452	1027.051503	-336.825498	62.682177	1059.773924	-92.084460	-71.606194	1160.005755	-185.153405	-49.396208	1158.154598	-297.094588	-35.269952	1045.730705	-26.771031	-20.366459	967.385597	-414.182141	92.848771	985.867722	-7.599116	179.067495	996.850533	-26.497262	257.638122	965.502030	-23.701651	180.618543	1031.261034	-41.022008	370.409225	956.930684	-46.362792	364.060886	937.579120	-173.878568	308.589778	862.086387	-22.883787	295.698861	774.193334	-31.833431	242.899330	706.787682	-35.195472	326.800664	763.189049	-51.248312	196.415439	600.309411	-48.094577	230.536718	608.197813	-124.367705	145.643118	602.061612	-98.121090	343.114479	460.886344	-83.649050	256.611524	482.301543	-27.643295	42.838944	857.952529	-428.804770	102.517957	795.882042	-415.817766	133.363599	814.220512	-405.601079	122.073186	709.516263	-405.931467	166.273985	612.778000	-385.036050	172.922404	604.645837	-267.796660	-0.515056	273.986996	-377.693404	20.889590	270.866760	-300.059182	-55.269808	249.881441	-332.609976	101.953349	164.453852	-394.862910	86.486740	519.474918	-411.908209	83.106083	433.467129	-400.377416	33.686869	359.063370	-391.717429	113.904025	426.309731	-379.122040	187.643894	176.898014	-337.069321	-205.036577	833.720853	-224.710007	-78.312856	81.764093	-423.689477	-102.767689	80.598171	-24.401725	
1254	6.2700	404.869261	1267.295777	11.567324	469.684962	1270.573985	-288.814993	403.404289	1309.964075	-153.505734	398.946141	1166.821752	-159.412625	462.813864	1012.667165	76.337498	636.285278	880.065697	-4.817859	518.526695	1041.360760	-443.162512	661.577973	885.790410	-372.614087	-100.373813	1098.682159	-237.815572	80.182880	1109.689915	-376.440057	51.722222	1141.307880	-83.801944	103.442557	1028.067234	-337.654842	61.897457	1060.493424	-92.761627	-71.540987	1161.885298	-185.191539	-49.905680	1159.492218	-297.053583	-35.275976	1046.896553	-26.834385	-22.582621	968.432578	-413.965074	91.607902	986.222612	-8.582240	177.938673	994.966632	-27.452882	256.025398	962.280128	-25.286590	180.018480	1029.479457	-42.504428	369.174530	951.226915	-47.235517	361.929721	930.577417	-174.339029	307.387173	855.788134	-24.410428	295.886396	767.822549	-30.650910	244.042688	699.310384	-34.470047	327.108027	756.864686	-50.909457	198.857129	592.258241	-47.221248	232.838913	600.584616	-123.403539	147.240411	591.555851	-97.277191	351.608949	460.088097	-83.038801	264.158344	477.355029	-26.680777	41.996024	858.293721	-429.086392	102.892916	797.511044	-415.812748	133.514905	816.533908	-406.366805	124.268854	711.736682	-405.421712	169.642324	616.013963	-384.921121	178.110568	607.494636	-267.971820	-6.617119	281.802192	-377.854068	15.564089	277.539802	-300.179106	-61.763191	259.100808	-332.644270	93.325618	169.987880	-395.130299	87.883182	524.512599	-411.887290	82.225940	438.723105	-400.135932	30.961527	365.524774	-391.659957	112.676902	430.839541	-378.725567	179.279488	179.726887	-337.376917	-205.099217	833.695617	-224.689314	-78.306974	81.756595	-423.698583	-102.756298	80.586443	-24.400290	
